<?xml version="1.0" standalone="no"?>
<!DOCTYPE svg PUBLIC "-//W3C//DTD SVG 20010904//EN"
 "http://www.w3.org/TR/2001/REC-SVG-20010904/DTD/svg10.dtd">
<svg version="1.0" xmlns="http://www.w3.org/2000/svg"
 width="353.000000pt" height="353.000000pt" viewBox="0 0 353.000000 353.000000"
 preserveAspectRatio="xMidYMid meet">
<metadata>
Created by potrace 1.11, written by Peter Selinger 2001-2013
</metadata>
<g transform="translate(0.000000,353.000000) scale(0.100000,-0.100000)"
fill="#000000" stroke="none">
<path d="M466 3268 c-176 -17 -347 -169 -386 -343 -17 -73 -16 -1713 1 -1781
37 -151 158 -278 310 -325 52 -16 93 -19 289 -19 211 0 229 1 252 20 14 11 28
32 31 47 6 32 -14 77 -40 88 -10 5 -110 9 -223 10 -113 1 -221 6 -240 10 -87
19 -158 78 -199 165 l-25 55 0 845 1 845 21 45 c41 85 109 143 190 164 35 9
364 12 1322 11 l1275 -1 53 -23 c32 -15 70 -43 96 -72 80 -89 76 -39 76 -969
0 -704 -2 -834 -15 -877 -20 -67 -81 -135 -153 -169 l-57 -27 -610 0 c-335 -1
-659 3 -718 6 -432 29 -708 224 -798 564 -27 101 -36 296 -19 401 65 404 322
673 715 749 78 15 295 8 370 -11 215 -57 391 -186 474 -348 103 -205 91 -456
-33 -647 -80 -123 -218 -231 -298 -231 -36 0 -68 32 -68 69 0 15 41 217 90
447 50 230 90 422 90 426 0 5 -45 8 -99 8 -112 0 -101 8 -121 -93 l-12 -59
-59 60 c-128 131 -282 154 -455 70 -207 -101 -364 -374 -365 -633 -1 -207 88
-373 239 -447 59 -29 76 -33 152 -33 76 0 92 3 151 33 36 18 88 53 116 78 28
24 53 44 56 44 2 0 7 -17 11 -39 8 -54 66 -106 132 -116 221 -37 454 103 607
362 122 209 140 477 48 707 -115 287 -360 472 -691 522 -69 10 -242 12 -312 3
-35 -5 -79 -11 -98 -13 -51 -7 -162 -43 -233 -76 -243 -113 -427 -328 -521
-611 -52 -156 -66 -249 -62 -424 4 -185 25 -274 102 -432 46 -97 65 -124 136
-196 107 -109 173 -152 323 -217 48 -20 194 -60 280 -76 22 -4 366 -9 764 -11
715 -4 724 -4 789 17 117 38 202 107 261 212 63 112 62 89 59 1030 l-3 853
-24 60 c-57 143 -162 239 -306 281 -55 16 -157 17 -1315 18 -690 1 -1286 -2
-1324 -6z m1327 -1033 c86 -41 136 -125 144 -244 15 -212 -105 -451 -264 -531
-57 -28 -153 -36 -192 -15 -43 23 -93 76 -112 119 -99 225 55 628 262 684 48
12 121 7 162 -13z"/>
<path d="M1087 637 c-15 -34 -45 -84 -67 -111 -22 -26 -40 -50 -40 -52 0 -2
349 -4 776 -4 l775 0 -35 43 c-38 47 -96 151 -96 173 0 12 -99 14 -643 14
l-643 0 -27 -63z"/>
<path d="M714 362 c-39 -26 -35 -94 6 -107 12 -4 481 -7 1042 -7 958 0 1020 1
1039 18 24 22 25 66 1 87 -17 16 -104 17 -1048 17 -566 0 -1034 -4 -1040 -8z"/>
</g>
</svg>
