<?xml version="1.0" encoding="utf-8"?>
<svg version="1.1" baseProfile="full"  width="500" height="500" viewBox="0 0 500 500"
		 xmlns="http://www.w3.org/2000/svg" xmlns:xlink="http://www.w3.org/1999/xlink" xmlns:ev="http://www.w3.org/2001/xml-events">
<desc></desc>
<rect width="500" height="500" fill="#ffffff" cx="0" cy="0" />
<defs>
<rect id="p" width="20" height="20" />
</defs>
<g fill="#000000">
<use x="40" y="40" xlink:href="#p" />
<use x="40" y="60" xlink:href="#p" />
<use x="40" y="80" xlink:href="#p" />
<use x="40" y="100" xlink:href="#p" />
<use x="40" y="120" xlink:href="#p" />
<use x="40" y="140" xlink:href="#p" />
<use x="40" y="160" xlink:href="#p" />
<use x="40" y="200" xlink:href="#p" />
<use x="40" y="240" xlink:href="#p" />
<use x="40" y="280" xlink:href="#p" />
<use x="40" y="320" xlink:href="#p" />
<use x="40" y="340" xlink:href="#p" />
<use x="40" y="360" xlink:href="#p" />
<use x="40" y="380" xlink:href="#p" />
<use x="40" y="400" xlink:href="#p" />
<use x="40" y="420" xlink:href="#p" />
<use x="40" y="440" xlink:href="#p" />
<use x="60" y="40" xlink:href="#p" />
<use x="60" y="160" xlink:href="#p" />
<use x="60" y="200" xlink:href="#p" />
<use x="60" y="260" xlink:href="#p" />
<use x="60" y="320" xlink:href="#p" />
<use x="60" y="440" xlink:href="#p" />
<use x="80" y="40" xlink:href="#p" />
<use x="80" y="80" xlink:href="#p" />
<use x="80" y="100" xlink:href="#p" />
<use x="80" y="120" xlink:href="#p" />
<use x="80" y="160" xlink:href="#p" />
<use x="80" y="220" xlink:href="#p" />
<use x="80" y="240" xlink:href="#p" />
<use x="80" y="280" xlink:href="#p" />
<use x="80" y="320" xlink:href="#p" />
<use x="80" y="360" xlink:href="#p" />
<use x="80" y="380" xlink:href="#p" />
<use x="80" y="400" xlink:href="#p" />
<use x="80" y="440" xlink:href="#p" />
<use x="100" y="40" xlink:href="#p" />
<use x="100" y="80" xlink:href="#p" />
<use x="100" y="100" xlink:href="#p" />
<use x="100" y="120" xlink:href="#p" />
<use x="100" y="160" xlink:href="#p" />
<use x="100" y="200" xlink:href="#p" />
<use x="100" y="240" xlink:href="#p" />
<use x="100" y="260" xlink:href="#p" />
<use x="100" y="320" xlink:href="#p" />
<use x="100" y="360" xlink:href="#p" />
<use x="100" y="380" xlink:href="#p" />
<use x="100" y="400" xlink:href="#p" />
<use x="100" y="440" xlink:href="#p" />
<use x="120" y="40" xlink:href="#p" />
<use x="120" y="80" xlink:href="#p" />
<use x="120" y="100" xlink:href="#p" />
<use x="120" y="120" xlink:href="#p" />
<use x="120" y="160" xlink:href="#p" />
<use x="120" y="220" xlink:href="#p" />
<use x="120" y="240" xlink:href="#p" />
<use x="120" y="260" xlink:href="#p" />
<use x="120" y="280" xlink:href="#p" />
<use x="120" y="320" xlink:href="#p" />
<use x="120" y="360" xlink:href="#p" />
<use x="120" y="380" xlink:href="#p" />
<use x="120" y="400" xlink:href="#p" />
<use x="120" y="440" xlink:href="#p" />
<use x="140" y="40" xlink:href="#p" />
<use x="140" y="160" xlink:href="#p" />
<use x="140" y="220" xlink:href="#p" />
<use x="140" y="240" xlink:href="#p" />
<use x="140" y="280" xlink:href="#p" />
<use x="140" y="320" xlink:href="#p" />
<use x="140" y="440" xlink:href="#p" />
<use x="160" y="40" xlink:href="#p" />
<use x="160" y="60" xlink:href="#p" />
<use x="160" y="80" xlink:href="#p" />
<use x="160" y="100" xlink:href="#p" />
<use x="160" y="120" xlink:href="#p" />
<use x="160" y="140" xlink:href="#p" />
<use x="160" y="160" xlink:href="#p" />
<use x="160" y="200" xlink:href="#p" />
<use x="160" y="240" xlink:href="#p" />
<use x="160" y="280" xlink:href="#p" />
<use x="160" y="320" xlink:href="#p" />
<use x="160" y="340" xlink:href="#p" />
<use x="160" y="360" xlink:href="#p" />
<use x="160" y="380" xlink:href="#p" />
<use x="160" y="400" xlink:href="#p" />
<use x="160" y="420" xlink:href="#p" />
<use x="160" y="440" xlink:href="#p" />
<use x="180" y="200" xlink:href="#p" />
<use x="180" y="240" xlink:href="#p" />
<use x="180" y="260" xlink:href="#p" />
<use x="180" y="280" xlink:href="#p" />
<use x="200" y="60" xlink:href="#p" />
<use x="200" y="80" xlink:href="#p" />
<use x="200" y="120" xlink:href="#p" />
<use x="200" y="140" xlink:href="#p" />
<use x="200" y="160" xlink:href="#p" />
<use x="200" y="180" xlink:href="#p" />
<use x="200" y="280" xlink:href="#p" />
<use x="200" y="300" xlink:href="#p" />
<use x="200" y="320" xlink:href="#p" />
<use x="200" y="380" xlink:href="#p" />
<use x="200" y="420" xlink:href="#p" />
<use x="200" y="440" xlink:href="#p" />
<use x="220" y="40" xlink:href="#p" />
<use x="220" y="100" xlink:href="#p" />
<use x="220" y="120" xlink:href="#p" />
<use x="220" y="140" xlink:href="#p" />
<use x="220" y="220" xlink:href="#p" />
<use x="220" y="260" xlink:href="#p" />
<use x="220" y="320" xlink:href="#p" />
<use x="220" y="360" xlink:href="#p" />
<use x="220" y="380" xlink:href="#p" />
<use x="220" y="420" xlink:href="#p" />
<use x="240" y="80" xlink:href="#p" />
<use x="240" y="120" xlink:href="#p" />
<use x="240" y="140" xlink:href="#p" />
<use x="240" y="160" xlink:href="#p" />
<use x="240" y="200" xlink:href="#p" />
<use x="240" y="220" xlink:href="#p" />
<use x="240" y="280" xlink:href="#p" />
<use x="240" y="300" xlink:href="#p" />
<use x="240" y="320" xlink:href="#p" />
<use x="240" y="340" xlink:href="#p" />
<use x="240" y="360" xlink:href="#p" />
<use x="240" y="380" xlink:href="#p" />
<use x="240" y="400" xlink:href="#p" />
<use x="240" y="420" xlink:href="#p" />
<use x="260" y="100" xlink:href="#p" />
<use x="260" y="140" xlink:href="#p" />
<use x="260" y="180" xlink:href="#p" />
<use x="260" y="220" xlink:href="#p" />
<use x="260" y="260" xlink:href="#p" />
<use x="260" y="280" xlink:href="#p" />
<use x="260" y="400" xlink:href="#p" />
<use x="260" y="420" xlink:href="#p" />
<use x="260" y="440" xlink:href="#p" />
<use x="280" y="80" xlink:href="#p" />
<use x="280" y="100" xlink:href="#p" />
<use x="280" y="160" xlink:href="#p" />
<use x="280" y="180" xlink:href="#p" />
<use x="280" y="220" xlink:href="#p" />
<use x="280" y="240" xlink:href="#p" />
<use x="280" y="280" xlink:href="#p" />
<use x="280" y="300" xlink:href="#p" />
<use x="280" y="320" xlink:href="#p" />
<use x="280" y="340" xlink:href="#p" />
<use x="280" y="360" xlink:href="#p" />
<use x="280" y="380" xlink:href="#p" />
<use x="280" y="400" xlink:href="#p" />
<use x="280" y="420" xlink:href="#p" />
<use x="300" y="220" xlink:href="#p" />
<use x="300" y="280" xlink:href="#p" />
<use x="300" y="300" xlink:href="#p" />
<use x="300" y="340" xlink:href="#p" />
<use x="300" y="360" xlink:href="#p" />
<use x="300" y="420" xlink:href="#p" />
<use x="320" y="40" xlink:href="#p" />
<use x="320" y="60" xlink:href="#p" />
<use x="320" y="80" xlink:href="#p" />
<use x="320" y="100" xlink:href="#p" />
<use x="320" y="120" xlink:href="#p" />
<use x="320" y="140" xlink:href="#p" />
<use x="320" y="160" xlink:href="#p" />
<use x="320" y="200" xlink:href="#p" />
<use x="320" y="220" xlink:href="#p" />
<use x="320" y="240" xlink:href="#p" />
<use x="320" y="260" xlink:href="#p" />
<use x="320" y="440" xlink:href="#p" />
<use x="340" y="40" xlink:href="#p" />
<use x="340" y="160" xlink:href="#p" />
<use x="340" y="200" xlink:href="#p" />
<use x="340" y="220" xlink:href="#p" />
<use x="340" y="240" xlink:href="#p" />
<use x="340" y="280" xlink:href="#p" />
<use x="340" y="300" xlink:href="#p" />
<use x="340" y="360" xlink:href="#p" />
<use x="340" y="380" xlink:href="#p" />
<use x="340" y="420" xlink:href="#p" />
<use x="360" y="40" xlink:href="#p" />
<use x="360" y="80" xlink:href="#p" />
<use x="360" y="100" xlink:href="#p" />
<use x="360" y="120" xlink:href="#p" />
<use x="360" y="160" xlink:href="#p" />
<use x="360" y="200" xlink:href="#p" />
<use x="360" y="220" xlink:href="#p" />
<use x="360" y="260" xlink:href="#p" />
<use x="360" y="320" xlink:href="#p" />
<use x="360" y="340" xlink:href="#p" />
<use x="360" y="360" xlink:href="#p" />
<use x="360" y="380" xlink:href="#p" />
<use x="360" y="400" xlink:href="#p" />
<use x="380" y="40" xlink:href="#p" />
<use x="380" y="80" xlink:href="#p" />
<use x="380" y="100" xlink:href="#p" />
<use x="380" y="120" xlink:href="#p" />
<use x="380" y="160" xlink:href="#p" />
<use x="380" y="260" xlink:href="#p" />
<use x="380" y="280" xlink:href="#p" />
<use x="380" y="320" xlink:href="#p" />
<use x="380" y="360" xlink:href="#p" />
<use x="380" y="420" xlink:href="#p" />
<use x="400" y="40" xlink:href="#p" />
<use x="400" y="80" xlink:href="#p" />
<use x="400" y="100" xlink:href="#p" />
<use x="400" y="120" xlink:href="#p" />
<use x="400" y="160" xlink:href="#p" />
<use x="400" y="200" xlink:href="#p" />
<use x="400" y="240" xlink:href="#p" />
<use x="400" y="320" xlink:href="#p" />
<use x="400" y="400" xlink:href="#p" />
<use x="420" y="40" xlink:href="#p" />
<use x="420" y="160" xlink:href="#p" />
<use x="420" y="200" xlink:href="#p" />
<use x="420" y="260" xlink:href="#p" />
<use x="420" y="320" xlink:href="#p" />
<use x="420" y="340" xlink:href="#p" />
<use x="420" y="360" xlink:href="#p" />
<use x="420" y="440" xlink:href="#p" />
<use x="440" y="40" xlink:href="#p" />
<use x="440" y="60" xlink:href="#p" />
<use x="440" y="80" xlink:href="#p" />
<use x="440" y="100" xlink:href="#p" />
<use x="440" y="120" xlink:href="#p" />
<use x="440" y="140" xlink:href="#p" />
<use x="440" y="160" xlink:href="#p" />
<use x="440" y="220" xlink:href="#p" />
<use x="440" y="240" xlink:href="#p" />
<use x="440" y="260" xlink:href="#p" />
<use x="440" y="300" xlink:href="#p" />
<use x="440" y="360" xlink:href="#p" />
<use x="440" y="380" xlink:href="#p" />
<use x="440" y="400" xlink:href="#p" />
</g>

</svg>